<svg t="1597991314192" class="icon" viewBox="0 0 1024 1024" version="1.1" xmlns="http://www.w3.org/2000/svg" p-id="633" width="200" height="200"><path d="M884.717154 240.259683a24.961835 24.961835 0 0 1-24.961836 24.961835H478.050613a24.969903 24.969903 0 0 1 0-49.931738h381.704705a24.969903 24.969903 0 0 1 24.961836 24.969903z" fill="#7BC7FF" p-id="634"></path><path d="M859.755318 277.323249H478.050613c-20.435788 0-37.063566-16.627777-37.063566-37.063566s16.627777-37.071633 37.063566-37.071633h381.704705c20.435788 0 37.063566 16.635845 37.063566 37.071633s-16.627777 37.063566-37.063566 37.063566z m-381.704705-49.923671a12.876241 12.876241 0 0 0 0 25.728278h381.704705a12.876241 12.876241 0 0 0 0-25.728278H478.050613z" fill="#33363A" p-id="635"></path><path d="M696.623995 260.6632c0 83.380921-67.584129 150.96505-150.956982 150.96505h-67.334026c-83.372853 0-150.956982-67.584129-150.956982-150.96505V220.816236c0-83.372853 67.584129-150.956982 150.956982-150.956982h67.334026c83.372853 0 150.956982 67.584129 150.956982 150.956982v39.846964z" fill="#BA8663" p-id="636"></path><path d="M696.623995 298.985346c0 83.380921-67.584129 150.96505-150.956982 150.96505h-67.334026c-83.372853 0-150.956982-67.584129-150.956982-150.96505V259.138382c0-83.372853 67.584129-150.956982 150.956982-150.956982h67.334026c83.372853 0 150.956982 67.584129 150.956982 150.956982v39.846964z" fill="#A57555" p-id="637"></path><path d="M545.667013 423.72998h-67.334026c-89.915855 0-163.058712-73.150925-163.058713-163.06678V220.816236c0-89.915855 73.142857-163.058712 163.058713-163.058712h67.334026c89.915855 0 163.058712 73.142857 163.058713 163.058712v39.838896c0 89.915855-73.150925 163.074848-163.058713 163.074848z m-67.334026-341.768995c-76.563613 0-138.855252 62.291639-138.855252 138.855251v39.838896c0 76.563613 62.291639 138.86332 138.855252 138.86332h67.334026c76.563613 0 138.855252-62.299707 138.855252-138.86332V220.816236c0-76.563613-62.291639-138.855252-138.855252-138.855251h-67.334026z" fill="#33363A" p-id="638"></path><path d="M512.008068 570.822476L12.10173 720.940405v263.091614h999.79654V720.940405z" fill="#4B6466" p-id="639"></path><path d="M512.008068 570.822476L12.10173 720.940405v263.091614h999.79654V720.940405z" fill="#7BC7FF" p-id="640"></path><path d="M512.008068 709.476033L12.10173 720.940405v263.091614h999.79654V720.940405z" fill="#12B2B2" p-id="641"></path><path d="M512.008068 709.476033L12.10173 720.940405v263.091614h999.79654V720.940405z" fill="#0086FF" p-id="642"></path><path d="M1011.89827 996.133749H12.10173a12.10173 12.10173 0 0 1-12.10173-12.10173V720.940405c0-5.340897 3.501434-10.052504 8.616432-11.593457l499.906338-150.117929a12.182408 12.182408 0 0 1 6.962528 0l499.890202 150.117929a12.10173 12.10173 0 0 1 8.616432 11.593457v263.083546a12.10173 12.10173 0 0 1-12.093662 12.109798zM24.20346 971.930289h975.59308V729.944093L512.008068 583.456683 24.20346 729.95216v241.978129z" fill="#33363A" p-id="643"></path><path d="M401.712899 436.218966l-21.218367 249.392455 131.505468 65.510699 131.513536-65.510699-21.218367-249.392455z" fill="#33363A" p-id="644"></path><path d="M512 775.325581c-2.129905 0-4.251741-0.55668-6.147679-1.678107l-131.505468-77.612429a12.093662 12.093662 0 0 1-5.905644-11.448237l21.210299-249.384388a12.10173 12.10173 0 0 1 12.061391-11.077117h220.590338a12.10173 12.10173 0 0 1 12.061391 11.077117l21.210299 249.384388a12.10173 12.10173 0 0 1-5.905645 11.448237l-131.513535 77.612429a12.182408 12.182408 0 0 1-6.155747 1.678107zM393.201349 679.052283l118.798651 70.109357 118.806719-70.109357-19.629006-230.731587H412.822287l-19.620938 230.731587z" fill="#33363A" p-id="645"></path><path d="M401.712899 436.218966l-21.218367 249.392455 131.505468 23.864612 131.513536-23.864612-21.218367-249.392455z" fill="#F9C19B" p-id="646"></path><path d="M622.295169 436.218966H401.712899l-12.10173 142.195329 84.292584 68.971794a60.121395 60.121395 0 0 0 38.104315 13.602345c13.513599 0 27.027197-4.542183 38.104314-13.602345l84.292585-68.971794-12.109798-142.195329z" fill="#EFA37D" p-id="647"></path><path d="M512 727.322051c-0.88746 0-1.782988-0.104882-2.662381-0.298509l-131.505467-29.616968a12.093662 12.093662 0 0 1-9.399011-12.827834l21.210299-249.384387a12.10173 12.10173 0 0 1 12.061391-11.077117h220.590338a12.10173 12.10173 0 0 1 12.061391 11.077117l21.210299 249.384387a12.10173 12.10173 0 0 1-9.399011 12.827834l-131.513535 29.616968a11.795153 11.795153 0 0 1-2.654313 0.298509z m-118.548549-51.198386l118.548549 26.704484 118.556617-26.704484-19.378904-227.794901H412.822287l-19.370836 227.794901z" fill="#33363A" p-id="648"></path><path d="M335.338943 392.023447a62.43686 62.43686 0 0 1-62.43686-62.444928 62.444928 62.444928 0 0 1 62.43686-62.436859M688.661057 267.133592a62.444928 62.444928 0 0 1 0 124.881787" fill="#F9C19B" p-id="649"></path><path d="M630.338785 209.472881l-107.802212-19.177208a60.815228 60.815228 0 0 0-21.073146 0l-107.794145 19.177208a60.185938 60.185938 0 0 0-49.633229 59.250071v177.572721a60.137531 60.137531 0 0 0 22.073556 46.583593L473.903753 581.076676a60.081056 60.081056 0 0 0 38.104315 13.610412c13.513599 0 27.027197-4.542183 38.104314-13.610412l107.802213-88.19741a60.185938 60.185938 0 0 0 22.065488-46.583593v-177.572721a60.194006 60.194006 0 0 0-49.641298-59.250071z" fill="#A57555" p-id="650"></path><path d="M630.338785 209.472881L522.536573 261.720084a60.032649 60.032649 0 0 0-21.073146 0l-107.794145-52.247203a60.185938 60.185938 0 0 0-49.633229 59.250071v177.572721a60.137531 60.137531 0 0 0 22.073556 46.583593L473.903753 581.076676a60.081056 60.081056 0 0 0 38.104315 13.610412c13.513599 0 27.027197-4.542183 38.104314-13.610412l107.802213-88.19741a60.185938 60.185938 0 0 0 22.065488-46.583593v-177.572721a60.194006 60.194006 0 0 0-49.641298-59.250071z" fill="#F9C19B" p-id="651"></path><path d="M512 594.679021c13.513599 0 27.027197-4.542183 38.104314-13.610413l107.802213-88.197409a60.185938 60.185938 0 0 0 22.065488-46.583594v-177.572721a60.185938 60.185938 0 0 0-49.63323-59.25007l-107.802212-19.177209c-6.970597-1.226309-3.565976-1.226309-10.536573 0" fill="#EFA37D" p-id="652"></path><path d="M763.207715 329.578519c0-41.105543-33.441114-74.53859-74.546658-74.53859-2.323532 0-4.469572 0.685765-6.317103 1.823328a12.069459 12.069459 0 0 0-14.473669 11.859695v177.572721a47.874445 47.874445 0 0 1-17.628187 37.216854L542.439885 571.701869c-17.111846 14.021871-43.735653 14.021871-60.87977 0L373.76597 483.512527a47.898648 47.898648 0 0 1-17.636255-37.216854v-177.572721a12.10173 12.10173 0 0 0-14.473669-11.859695 11.972645 11.972645 0 0 0-6.317103-1.823328c-41.105543 0-74.53859 33.441114-74.53859 74.53859 0 39.951845 31.617787 72.570042 71.125902 74.377234v42.33992a72.037566 72.037566 0 0 0 26.510857 55.9584l107.794144 88.19741a72.481296 72.481296 0 0 0 45.768744 16.337336c16.643913 0 32.90057-5.80883 45.768744-16.337336l107.81028-88.19741a72.053701 72.053701 0 0 0 26.502789-55.9584V403.955753c39.508115-1.807192 71.125902-34.433456 71.125902-74.377234z m-478.203902 0c0-26.607671 20.758501-48.398853 46.922442-50.165705V379.752293c-26.163941-1.77492-46.922442-23.57417-46.922442-50.173774z m407.069932 50.165706V279.412814c26.163941 1.766853 46.922442 23.558035 46.922442 50.165705s-20.758501 48.398853-46.922442 50.165706z" fill="#33363A" p-id="653"></path><path d="M98.59683 993.358419a12.10173 12.10173 0 0 1-11.730611-9.165043l-43.025685-171.901044a12.10173 12.10173 0 1 1 23.477357-5.873373l43.025685 171.901044a12.10173 12.10173 0 0 1-11.746746 15.038416zM925.40317 993.358419a12.10173 12.10173 0 0 1-11.746746-15.038416l43.025685-171.901044a12.10173 12.10173 0 0 1 23.477357 5.873373l-43.025685 171.901044a12.10173 12.10173 0 0 1-11.730611 9.165043z" fill="#33363A" p-id="654"></path><path d="M597.591504 39.967981H426.408496c-65.413885 0-118.443667 53.021714-118.443667 118.435599v111.932936h408.070342V158.40358c0-65.413885-53.021714-118.435599-118.443667-118.435599z" fill="#7BC7FF" p-id="655"></path><path d="M597.591504 94.288614H426.408496c-65.413885 0-118.443667 53.021714-118.443667 118.443667v57.612303h408.070342v-57.612303c0-65.421953-53.021714-118.443667-118.443667-118.443667z" fill="#0086FF" p-id="656"></path><path d="M716.035171 282.438247h-408.070342a12.10173 12.10173 0 0 1-12.10173-12.101731V158.40358c0-71.981091 58.564306-130.537329 130.545397-130.537329h171.191075c71.981091 0 130.545397 58.556238 130.545398 130.537329v111.932936a12.109798 12.109798 0 0 1-12.109798 12.101731z m-395.968611-24.203461h383.86688V158.40358c0-58.636917-47.70502-106.333869-106.341936-106.333869H426.408496c-58.636917 0-106.341937 47.696953-106.341936 106.333869v99.831206z" fill="#33363A" p-id="657"></path><path d="M560.406921 170.214869h-96.813842a12.10173 12.10173 0 0 0-12.10173 12.10173v37.67672a12.10173 12.10173 0 0 0 12.10173 12.10173h96.813842a12.10173 12.10173 0 0 0 12.10173-12.10173v-37.67672a12.10173 12.10173 0 0 0-12.10173-12.10173z" fill="#33363A" p-id="658"></path><path d="M282.567332 712.799975a12.10173 12.10173 0 0 1-2.299329-23.985629l103.542403-20.169551a12.10173 12.10173 0 1 1 4.622861 23.767798l-103.542403 20.169551a12.714884 12.714884 0 0 1-2.323532 0.217831zM741.432668 712.799975c-0.766443 0-1.540954-0.07261-2.323532-0.217831l-103.542403-20.169551a12.109798 12.109798 0 0 1 4.622861-23.767798l103.542403 20.169551a12.109798 12.109798 0 0 1-2.299329 23.985629z" fill="#33363A" p-id="659"></path><path d="M365.778828 923.652453c0-80.750812 65.47036-146.221172 146.213104-146.221171 80.750812 0 146.221172 65.47036 146.221172 146.221171" fill="#FF8F8F" p-id="660"></path><path d="M365.778828 923.652453c0-61.815638 65.47036-112.021682 146.213104-112.021682 80.750812 0 146.221172 50.206045 146.221172 112.021682" fill="#FF1A1A" p-id="661"></path><path d="M658.213104 923.652453H365.778828" fill="#FFFFFF" p-id="662"></path><path d="M658.213104 923.652453H365.778828" fill="#DCE6EA" p-id="663"></path><path d="M511.991932 765.329552c-87.293814 0-158.314834 71.029088-158.314834 158.322901a12.10173 12.10173 0 0 0 12.10173 12.101731h292.434276a12.10173 12.10173 0 0 0 12.10173-12.101731c0-87.293814-71.02102-158.322902-158.322902-158.322901z m0 24.20346c69.867322 0 127.358608 53.715546 133.506287 122.017711H378.493713c6.147679-68.294097 63.638965-122.017711 133.498219-122.017711z" fill="#33363A" p-id="664"></path><path d="M546.175286 889.783745a48.310107 48.310107 0 0 1 0 68.350572 48.33431 48.33431 0 1 1 0-68.350572z" fill="#FFFFFF" p-id="665"></path><path d="M477.808578 958.134317a48.33431 48.33431 0 0 1 68.366708-68.350572" fill="#D8E5EA" p-id="666"></path><path d="M512 984.411207a60.072989 60.072989 0 0 1-42.751379-17.716933c-11.407898-11.391762-17.69273-26.567332-17.692729-42.719108s6.284832-31.335413 17.692729-42.743311c11.424033-11.424033 26.599603-17.708865 42.743311-17.708865s31.319278 6.284832 42.727175 17.700797a60.008446 60.008446 0 0 1 17.708866 42.767515c0 16.143708-6.2929 31.319278-17.716933 42.71104a59.99231 59.99231 0 0 1-42.702972 17.708865h-0.008068z m0-96.692824c-9.681384 0-18.781885 3.77574-25.631464 10.617251a35.998613 35.998613 0 0 0-10.601116 25.631464c0 9.673316 3.759604 18.773817 10.601116 25.599194a36.022817 36.022817 0 0 0 25.639532 10.633387h0.008068a36.014749 36.014749 0 0 0 25.599193-10.617252 35.934071 35.934071 0 0 0 10.625319-25.607261c0-9.681384-3.767672-18.789953-10.609184-25.631464l-0.008067-0.016136a36.04702 36.04702 0 0 0-25.623397-10.609183z" fill="#33363A" p-id="667"></path></svg>